<svg xmlns="http://www.w3.org/2000/svg" width="440" height="320" viewBox="0 0 440 320">
  <g fill="none" stroke="#C96F2F" stroke-opacity="0.34" stroke-width="1.6">
    <path d="M8 60 C40 58 62 72 64 100 C65 120 52 134 34 132 C20 130 14 116 22 106 C28 99 38 101 40 110"/>
    <path d="M64 100 C90 108 108 100 124 84 C136 72 138 56 130 44"/>
    <path d="M124 84 C140 92 152 90 162 78"/>
    <circle cx="22" cy="106" r="2.2" fill="#C96F2F" fill-opacity="0.4" stroke="none"/>
    <circle cx="162" cy="78" r="2" fill="#C96F2F" fill-opacity="0.4" stroke="none"/>
  </g>
  <g fill="none" stroke="#E08A4E" stroke-opacity="0.3" stroke-width="1.4">
    <path d="M30 200 C26 184 30 168 42 158 C50 170 50 188 40 200 Z"/>
    <path d="M70 220 C68 206 74 192 86 186 C92 198 90 212 82 220 Z"/>
    <path d="M42 158 C60 150 82 152 98 164"/>
  </g>
  <g fill="#F0E4D4" fill-opacity="0.2">
    <circle cx="130" cy="44" r="1.8"/>
    <circle cx="98" cy="164" r="1.8"/>
    <circle cx="86" cy="186" r="1.6"/>
  </g>
</svg>
